<svg xmlns="http://www.w3.org/2000/svg" xmlns:xlink="http://www.w3.org/1999/xlink" width="1366" zoomAndPan="magnify" viewBox="0 0 1024.5 494.249999" height="768" preserveAspectRatio="xMidYMid meet" version="1.0"><defs><g/><clipPath id="cdb9a4d5eb"><path d="M 0.527344 0 L 1023.472656 0 L 1023.472656 493.5 L 0.527344 493.5 Z M 0.527344 0 " clip-rule="nonzero"/></clipPath><clipPath id="e948624f2e"><path d="M 24 24.160156 L 1022 24.160156 L 1022 492.777344 L 24 492.777344 Z M 24 24.160156 " clip-rule="nonzero"/></clipPath><clipPath id="933f23bb73"><path d="M 1015.546875 492.367188 L 30.53125 492.367188 C 27.09375 492.367188 24.253906 489.53125 24.253906 486.089844 L 24.253906 30.867188 C 24.253906 27.429688 27.09375 24.589844 30.53125 24.589844 L 1015.460938 24.589844 C 1018.898438 24.589844 1021.738281 27.429688 1021.738281 30.867188 L 1021.738281 486.003906 C 1021.824219 489.53125 1018.984375 492.367188 1015.546875 492.367188 " clip-rule="nonzero"/></clipPath><clipPath id="926665a028"><path d="M 22.105469 22.441406 L 1023.472656 22.441406 L 1023.472656 493.5 L 22.105469 493.5 Z M 22.105469 22.441406 " clip-rule="nonzero"/></clipPath><clipPath id="192397e0a1"><path d="M 1015.546875 26.480469 C 1017.953125 26.480469 1019.933594 28.460938 1019.933594 30.867188 L 1019.933594 486.089844 C 1019.933594 488.5 1017.953125 490.476562 1015.546875 490.476562 L 30.53125 490.476562 C 28.125 490.476562 26.148438 488.5 26.148438 486.089844 L 26.148438 30.867188 C 26.148438 28.460938 28.125 26.480469 30.53125 26.480469 L 1015.546875 26.480469 M 1015.546875 22.441406 L 30.53125 22.441406 C 25.886719 22.441406 22.105469 26.222656 22.105469 30.867188 L 22.105469 486.089844 C 22.105469 490.734375 25.886719 494.519531 30.53125 494.519531 L 1015.546875 494.519531 C 1020.191406 494.519531 1023.972656 490.734375 1023.972656 486.089844 L 1023.972656 30.867188 C 1023.972656 26.222656 1020.191406 22.441406 1015.546875 22.441406 " clip-rule="nonzero"/></clipPath><clipPath id="b46179d0ab"><path d="M 2.246094 2 L 1000.527344 2 L 1000.527344 470 L 2.246094 470 Z M 2.246094 2 " clip-rule="nonzero"/></clipPath><clipPath id="1b0926cf46"><path d="M 993.96875 469.925781 L 8.953125 469.925781 C 5.511719 469.925781 2.675781 467.089844 2.675781 463.648438 L 2.675781 8.425781 C 2.675781 4.988281 5.511719 2.148438 8.953125 2.148438 L 993.882812 2.148438 C 997.320312 2.148438 1000.160156 4.988281 1000.160156 8.425781 L 1000.160156 463.5625 C 1000.246094 467.089844 997.40625 469.925781 993.96875 469.925781 " clip-rule="nonzero"/></clipPath><clipPath id="5a96cb07ed"><path d="M 0.527344 0 L 1003 0 L 1003 472.914062 L 0.527344 472.914062 Z M 0.527344 0 " clip-rule="nonzero"/></clipPath><clipPath id="b9705e0fad"><path d="M 993.96875 4.042969 C 996.375 4.042969 998.351562 6.019531 998.351562 8.425781 L 998.351562 463.648438 C 998.351562 466.058594 996.375 468.035156 993.96875 468.035156 L 8.953125 468.035156 C 6.546875 468.035156 4.566406 466.058594 4.566406 463.648438 L 4.566406 8.425781 C 4.566406 6.019531 6.546875 4.042969 8.953125 4.042969 L 993.96875 4.042969 M 993.96875 0 L 8.953125 0 C 4.308594 0 0.527344 3.785156 0.527344 8.425781 L 0.527344 463.648438 C 0.527344 468.292969 4.308594 472.078125 8.953125 472.078125 L 993.96875 472.078125 C 998.613281 472.078125 1002.394531 468.292969 1002.394531 463.648438 L 1002.394531 8.425781 C 1002.394531 3.785156 998.613281 0 993.96875 0 " clip-rule="nonzero"/></clipPath><clipPath id="80e55c9e0a"><path d="M 37 30 L 69 30 L 69 62 L 37 62 Z M 37 30 " clip-rule="nonzero"/></clipPath><clipPath id="108a50c5b7"><path d="M 52.636719 23.816406 L 74.441406 45.617188 L 52.636719 67.421875 L 30.835938 45.617188 Z M 52.636719 23.816406 " clip-rule="nonzero"/></clipPath><clipPath id="7953fcc6ec"><path d="M 52.636719 23.816406 L 74.441406 45.617188 L 52.636719 67.421875 L 30.835938 45.617188 Z M 52.636719 23.816406 " clip-rule="nonzero"/></clipPath><clipPath id="f1d5250535"><path d="M 46 39 L 59 39 L 59 52 L 46 52 Z M 46 39 " clip-rule="nonzero"/></clipPath><clipPath id="f01acffbb2"><path d="M 52.636719 23.816406 L 74.441406 45.617188 L 52.636719 67.421875 L 30.835938 45.617188 Z M 52.636719 23.816406 " clip-rule="nonzero"/></clipPath><clipPath id="2fd9b26f50"><path d="M 52.636719 23.816406 L 74.441406 45.617188 L 52.636719 67.421875 L 30.835938 45.617188 Z M 52.636719 23.816406 " clip-rule="nonzero"/></clipPath><clipPath id="7a22c117a7"><path d="M 131.433594 30.324219 L 162.269531 30.324219 L 162.269531 61.15625 L 131.433594 61.15625 Z M 131.433594 30.324219 " clip-rule="nonzero"/></clipPath><clipPath id="2b47810e3e"><path d="M 83.835938 30.324219 L 114.671875 30.324219 L 114.671875 61.15625 L 83.835938 61.15625 Z M 83.835938 30.324219 " clip-rule="nonzero"/></clipPath><clipPath id="1e8c045866"><path d="M 0.527344 90.308594 L 1001.4375 90.308594 L 1001.4375 97.425781 L 0.527344 97.425781 Z M 0.527344 90.308594 " clip-rule="nonzero"/></clipPath></defs><g clip-path="url(#cdb9a4d5eb)"><path fill="#ffffff" d="M 0.527344 0 L 1023.972656 0 L 1023.972656 501.234375 L 0.527344 501.234375 Z M 0.527344 0 " fill-opacity="1" fill-rule="nonzero"/><path fill="#ffffff" d="M 0.527344 0 L 1023.972656 0 L 1023.972656 493.742188 L 0.527344 493.742188 Z M 0.527344 0 " fill-opacity="1" fill-rule="nonzero"/><path fill="#ffffff" d="M 0.527344 0 L 1023.972656 0 L 1023.972656 493.742188 L 0.527344 493.742188 Z M 0.527344 0 " fill-opacity="1" fill-rule="nonzero"/></g><g clip-path="url(#e948624f2e)"><g clip-path="url(#933f23bb73)"><path fill="#272727" d="M 22.105469 22.441406 L 1023.828125 22.441406 L 1023.828125 494.496094 L 22.105469 494.496094 Z M 22.105469 22.441406 " fill-opacity="1" fill-rule="nonzero"/></g></g><g clip-path="url(#926665a028)"><g clip-path="url(#192397e0a1)"><path fill="#272727" d="M 22.105469 22.441406 L 1023.828125 22.441406 L 1023.828125 494.496094 L 22.105469 494.496094 Z M 22.105469 22.441406 " fill-opacity="1" fill-rule="nonzero"/></g></g><g clip-path="url(#b46179d0ab)"><g clip-path="url(#1b0926cf46)"><path fill="#f4f4f4" d="M 0.527344 0 L 1002.246094 0 L 1002.246094 472.054688 L 0.527344 472.054688 Z M 0.527344 0 " fill-opacity="1" fill-rule="nonzero"/></g></g><g clip-path="url(#5a96cb07ed)"><g clip-path="url(#b9705e0fad)"><path fill="#272727" d="M 0.527344 0 L 1002.246094 0 L 1002.246094 472.054688 L 0.527344 472.054688 Z M 0.527344 0 " fill-opacity="1" fill-rule="nonzero"/></g></g><g clip-path="url(#80e55c9e0a)"><g clip-path="url(#108a50c5b7)"><g clip-path="url(#7953fcc6ec)"><path fill="#272727" d="M 41.734375 56.523438 C 35.722656 50.511719 35.722656 40.730469 41.734375 34.71875 C 47.746094 28.707031 57.527344 28.707031 63.539062 34.71875 C 69.550781 40.730469 69.550781 50.511719 63.539062 56.523438 C 57.527344 62.535156 47.746094 62.535156 41.734375 56.523438 Z M 62.460938 35.796875 C 57.042969 30.382812 48.230469 30.382812 42.8125 35.796875 C 37.398438 41.214844 37.398438 50.027344 42.816406 55.445312 C 48.230469 60.859375 57.042969 60.859375 62.460938 55.445312 C 67.875 50.027344 67.875 41.214844 62.460938 35.796875 Z M 62.460938 35.796875 " fill-opacity="1" fill-rule="nonzero"/></g></g></g><g clip-path="url(#f1d5250535)"><g clip-path="url(#f01acffbb2)"><g clip-path="url(#2fd9b26f50)"><path fill="#272727" d="M 57.105469 39.96875 C 53.789062 43.285156 50.472656 46.605469 47.15625 49.921875 C 46.503906 50.574219 47.515625 51.585938 48.167969 50.933594 C 51.484375 47.617188 54.800781 44.300781 58.121094 40.980469 C 58.773438 40.328125 57.761719 39.316406 57.105469 39.96875 Z M 57.105469 39.96875 " fill-opacity="1" fill-rule="nonzero"/><path fill="#272727" d="M 58.121094 49.921875 C 54.800781 46.605469 51.484375 43.289062 48.167969 39.96875 C 47.515625 39.316406 46.503906 40.328125 47.15625 40.980469 C 50.472656 44.300781 53.789062 47.617188 57.105469 50.933594 C 57.761719 51.585938 58.773438 50.574219 58.121094 49.921875 Z M 58.121094 49.921875 " fill-opacity="1" fill-rule="nonzero"/></g></g></g><g clip-path="url(#7a22c117a7)"><path fill="#272727" d="M 146.855469 61.160156 C 138.351562 61.160156 131.433594 54.242188 131.433594 45.742188 C 131.433594 37.242188 138.351562 30.324219 146.855469 30.324219 C 155.355469 30.324219 162.273438 37.242188 162.273438 45.742188 C 162.273438 54.242188 155.355469 61.160156 146.855469 61.160156 Z M 146.855469 31.851562 C 139.195312 31.851562 132.960938 38.082031 132.960938 45.742188 C 132.960938 53.402344 139.195312 59.632812 146.855469 59.632812 C 154.515625 59.632812 160.746094 53.402344 160.746094 45.742188 C 160.746094 38.082031 154.515625 31.851562 146.855469 31.851562 Z M 146.855469 31.851562 " fill-opacity="1" fill-rule="nonzero"/></g><path fill="#272727" d="M 153.773438 44.90625 C 149.082031 44.90625 144.390625 44.90625 139.699219 44.90625 C 138.773438 44.90625 138.773438 46.339844 139.699219 46.339844 C 144.390625 46.339844 149.082031 46.339844 153.773438 46.339844 C 154.695312 46.339844 154.695312 44.90625 153.773438 44.90625 Z M 153.773438 44.90625 " fill-opacity="1" fill-rule="nonzero"/><g clip-path="url(#2b47810e3e)"><path fill="#272727" d="M 99.257812 61.160156 C 90.753906 61.160156 83.835938 54.242188 83.835938 45.742188 C 83.835938 37.242188 90.753906 30.324219 99.257812 30.324219 C 107.757812 30.324219 114.675781 37.242188 114.675781 45.742188 C 114.675781 54.242188 107.757812 61.160156 99.257812 61.160156 Z M 99.257812 31.851562 C 91.597656 31.851562 85.363281 38.082031 85.363281 45.742188 C 85.363281 53.402344 91.597656 59.632812 99.257812 59.632812 C 106.917969 59.632812 113.148438 53.402344 113.148438 45.742188 C 113.148438 38.082031 106.917969 31.851562 99.257812 31.851562 Z M 99.257812 31.851562 " fill-opacity="1" fill-rule="nonzero"/></g><path fill="#272727" d="M 98.421875 38.585938 C 98.421875 43.277344 98.421875 47.96875 98.421875 52.660156 C 98.421875 53.582031 99.851562 53.582031 99.851562 52.660156 C 99.851562 47.96875 99.851562 43.277344 99.851562 38.585938 C 99.851562 37.664062 98.421875 37.664062 98.421875 38.585938 Z M 98.421875 38.585938 " fill-opacity="1" fill-rule="nonzero"/><path fill="#272727" d="M 106.175781 44.90625 C 101.484375 44.90625 96.792969 44.90625 92.101562 44.90625 C 91.175781 44.90625 91.175781 46.339844 92.101562 46.339844 C 96.792969 46.339844 101.484375 46.339844 106.175781 46.339844 C 107.097656 46.339844 107.097656 44.90625 106.175781 44.90625 Z M 106.175781 44.90625 " fill-opacity="1" fill-rule="nonzero"/><g clip-path="url(#1e8c045866)"><path fill="#272727" d="M 0.527344 90.308594 L 1001.4375 90.308594 L 1001.4375 97.425781 L 0.527344 97.425781 Z M 0.527344 90.308594 " fill-opacity="1" fill-rule="nonzero"/></g><g fill="#272727" fill-opacity="1"><g transform="translate(121.881803, 296.858575)"><g><path d="M 66.679688 2.976562 C 99.058594 2.976562 118.832031 -13.476562 118.832031 -39.726562 C 118.832031 -70.703125 90.832031 -77.003906 68.253906 -82.082031 C 53.027344 -85.582031 40.078125 -88.554688 40.078125 -98.183594 C 40.078125 -106.582031 48.828125 -110.082031 57.753906 -110.082031 C 70.878906 -110.082031 79.980469 -103.257812 83.132812 -91.882812 L 115.507812 -91.882812 C 111.308594 -121.632812 86.457031 -136.335938 58.453125 -136.335938 C 31.152344 -136.335938 8.925781 -123.207031 8.925781 -95.558594 C 8.925781 -66.15625 35.703125 -60.203125 58.105469 -55.128906 C 73.855469 -51.628906 87.332031 -48.652344 87.332031 -38.152344 C 87.332031 -27.652344 77.179688 -23.277344 66.503906 -23.277344 C 54.429688 -23.277344 42.351562 -27.828125 37.800781 -45.328125 L 5.425781 -45.328125 C 7.875 -7.875 41.476562 2.976562 66.679688 2.976562 Z M 66.679688 2.976562 "/></g></g></g><g fill="#272727" fill-opacity="1"><g transform="translate(246.834377, 296.858575)"><g><path d="M 24.328125 -106.058594 C 33.425781 -106.058594 40.953125 -111.65625 40.953125 -121.109375 C 40.953125 -130.382812 33.425781 -136.335938 24.328125 -136.335938 C 15.226562 -136.335938 7.699219 -130.382812 7.699219 -121.109375 C 7.699219 -111.65625 15.226562 -106.058594 24.328125 -106.058594 Z M 39.027344 0 L 39.027344 -99.230469 L 9.625 -99.230469 L 9.625 0 Z M 39.027344 0 "/></g></g></g><g fill="#272727" fill-opacity="1"><g transform="translate(295.835403, 296.858575)"><g><path d="M 39.027344 0 L 39.027344 -55.828125 C 39.027344 -64.40625 40.253906 -69.304688 42.703125 -72.628906 C 45.328125 -76.304688 49.703125 -77.707031 55.828125 -77.707031 C 60.730469 -77.707031 64.230469 -76.65625 66.679688 -74.03125 C 69.65625 -70.878906 70.878906 -65.628906 70.878906 -55.828125 L 70.878906 0 L 100.28125 0 L 100.28125 -55.480469 C 100.28125 -67.730469 100.28125 -75.605469 96.433594 -84.179688 C 92.40625 -93.28125 84.007812 -101.332031 64.40625 -101.332031 C 53.902344 -101.332031 45.679688 -98.53125 39.027344 -88.554688 L 39.027344 -99.230469 L 9.625 -99.230469 L 9.625 0 Z M 39.027344 0 "/></g></g></g><g fill="#272727" fill-opacity="1"><g transform="translate(405.387661, 296.858575)"><g><path d="M 57.753906 2.101562 C 89.257812 2.101562 109.90625 -18.726562 109.90625 -50.230469 C 109.90625 -80.503906 88.90625 -101.332031 57.753906 -101.332031 C 26.601562 -101.332031 5.601562 -80.679688 5.601562 -50.230469 C 5.601562 -18.550781 26.777344 2.101562 57.753906 2.101562 Z M 57.753906 -23.101562 C 44.628906 -23.101562 35.878906 -33.601562 35.878906 -50.230469 C 35.878906 -65.804688 44.628906 -76.304688 57.753906 -76.304688 C 71.054688 -76.304688 79.28125 -65.628906 79.28125 -50.230469 C 79.28125 -33.953125 71.054688 -23.101562 57.753906 -23.101562 Z M 57.753906 -23.101562 "/></g></g></g><g fill="#272727" fill-opacity="1"><g transform="translate(521.240079, 296.858575)"><g><path d="M 51.628906 0 L 51.628906 -23.800781 L 44.277344 -23.800781 C 42.003906 -23.800781 38.503906 -24.5 38.503906 -29.925781 L 38.503906 -133.535156 L 9.101562 -133.535156 L 9.101562 -19.777344 C 9.101562 -7.175781 17.328125 0 31.851562 0 Z M 51.628906 0 "/></g></g></g><g fill="#272727" fill-opacity="1"><g transform="translate(577.241245, 296.858575)"><g><path d="M 57.402344 2.101562 C 85.40625 2.101562 100.632812 -14.699219 106.234375 -34.300781 L 76.65625 -34.300781 C 74.207031 -28.175781 67.90625 -23.101562 58.980469 -23.101562 C 51.628906 -23.101562 45.679688 -25.375 41.476562 -30.628906 C 39.027344 -33.601562 37.101562 -38.503906 36.402344 -43.402344 L 107.808594 -43.402344 L 107.808594 -48.476562 C 107.808594 -86.804688 82.605469 -101.332031 56.527344 -101.332031 C 20.652344 -101.332031 5.601562 -74.03125 5.601562 -48.828125 C 5.601562 -19.425781 25.902344 2.101562 57.402344 2.101562 Z M 37.277344 -64.230469 C 37.628906 -66.503906 38.503906 -69.828125 41.828125 -73.15625 C 46.027344 -77.355469 51.628906 -78.929688 57.578125 -78.929688 C 63.53125 -78.929688 69.128906 -77.355469 73.332031 -73.15625 C 76.480469 -70.003906 77.53125 -66.503906 78.054688 -64.230469 Z M 37.277344 -64.230469 "/></g></g></g><g fill="#272727" fill-opacity="1"><g transform="translate(690.993591, 296.858575)"><g><path d="M 22.050781 2.101562 C 30.800781 2.101562 38.152344 -5.425781 38.152344 -14.527344 C 38.152344 -23.277344 30.800781 -30.800781 22.050781 -30.800781 C 12.949219 -30.800781 5.25 -23.453125 5.25 -14.527344 C 5.25 -5.25 12.949219 2.101562 22.050781 2.101562 Z M 22.050781 2.101562 "/></g></g></g><g fill="#272727" fill-opacity="1"><g transform="translate(734.744514, 296.858575)"><g><path d="M 51.628906 0 L 51.628906 -23.800781 L 44.277344 -23.800781 C 42.003906 -23.800781 38.503906 -24.5 38.503906 -29.925781 L 38.503906 -133.535156 L 9.101562 -133.535156 L 9.101562 -19.777344 C 9.101562 -7.175781 17.328125 0 31.851562 0 Z M 51.628906 0 "/></g></g></g><g fill="#272727" fill-opacity="1"><g transform="translate(790.745679, 296.858575)"><g><path d="M 60.90625 0 L 97.65625 -99.230469 L 66.503906 -99.230469 L 49.003906 -43.578125 L 32.203125 -99.230469 L 1.050781 -99.230469 L 37.628906 0 Z M 60.90625 0 "/></g></g></g></svg>